# xmcd CD database file
#
# Track frame offsets:
#	150
#	24565
#	46227
#	56487
#	71920
#	87817
#	108255
#	124957
#	146190
#	171105
#	189760
#	205527
#	227512
#	241800
#	256075
#
# Disc length: 3602 seconds
#
# Revision: 1
# Processed by: cddbd v1.5PL3 Copyright (c) Steve Scherf et al.
# Submitted via: CDex 1.51
#
DISCID=c30e100f
DTITLE=Louis Armstrong - 100th Birthday Anniversary Anthology, Disc 2
DYEAR=2001
DGENRE=Jazz
TTITLE0=I Want A Big Butter And Egg Man
TTITLE1=St. James Infirmary
TTITLE2=What A Wonderful World
TTITLE3=Please Don't Talk About Me When I'm Gone
TTITLE4=A Fine Romance
TTITLE5=They Can't Take That Away From Me
TTITLE6=Moonlight Vermont
TTITLE7=Jeepers Creepers
TTITLE8=Sweethearts On Parade
TTITLE9=Someday You'll Be Sorry
TTITLE10=Black And Blue
TTITLE11=A Foggy Day
TTITLE12=Blue Again
TTITLE13=Little Joe
TTITLE14=I'll Be Glad When You're Dead, You Rascal You
EXTD=YEAR: 2001
EXTT0=
EXTT1=
EXTT2=
EXTT3=
EXTT4=
EXTT5=
EXTT6=
EXTT7=
EXTT8=
EXTT9=
EXTT10=
EXTT11=
EXTT12=
EXTT13=
EXTT14=
PLAYORDER=
